PathFileType	4	(X/Y/Z)	OpenSim_Sub07_CSBaseline_Accel.trc
DataRate	CameraRate	NumFrames	NumMarkers	Units	OrigDataRate	OrigDataStartFrame	OrigNumFrames
100	100	13	8	m	100	6815	7788
Frame#	Time	torso_imu_offset_imu	pelvis_imu_offset_imu	tibia_r_imu_offset_imu	femur_r_imu_offset_imu	tibia_l_imu_offset_imu	femur_l_imu_offset_imu	toes_r_imu_offset_imu	toes_l_imu_offset_imu
				X1	Y1	Z1	X2	Y2	Z2	X3	Y3	Z3	X4	Y4	Z4	X5	Y5	Z5	X6	Y6	Z6	X7	Y7	Z7	X8		Y8	Z8	

6815	68.14000000	-10.01053753	0.25146175	6.28689097	10.30786537	1.96000934	4.05200785	15.79164251	1.01933296	0.63276279	9.93117786	-2.68224869	1.06464538	12.39475565	-1.35707259	2.76078468	9.84558242	0.49187510	-2.19528846	3.69125514	0.81307608	11.38066980	8.82374035	2.05066744	12.80943833
6816	68.15000000	-9.61072927	0.09759001	6.06862909	10.00281325	1.74146679	4.17134086	14.86615531	-0.07490543	0.59454625	10.52941627	-2.08395741	1.26701509	10.43968079	-2.46167107	2.11799795	9.78595021	-1.20554309	-3.71106280	3.96503868	1.17077325	11.68542779	7.75265614	-0.68783916	10.97782956
6817	68.16000000	-9.48112939	0.00106223	5.96708268	9.82238434	1.20229438	4.23646523	13.64017782	0.39921744	-0.04387679	11.04146595	-1.19308839	0.95559610	8.82230780	-4.39544772	2.05158071	9.52807590	-1.49874855	-3.47358774	4.35464204	-0.34168464	12.26105748	6.90402519	1.61433863	11.51140702
6818	68.17000000	-9.31836279	-0.12685142	5.95072183	9.69802963	0.68994146	4.38845675	12.79175125	1.81299801	-1.91738892	11.16536359	-0.53989611	0.52313181	7.98571079	-6.38249125	0.96044691	9.54384496	-0.62886107	-3.21113875	5.09398741	-0.45619556	11.63856177	5.93932144	3.14685156	11.19076768
6819	68.18000000	-9.06387120	-0.22633143	5.98804769	9.54908288	0.24422248	4.16467521	12.52164210	3.60326530	-2.58718605	10.79354919	0.13685261	0.64196786	8.19135118	-6.39854919	-0.83242917	9.67874580	1.16931482	-2.88193449	6.39956247	2.98348520	10.74275755	6.32885237	3.93410073	11.77420044
6820	68.19000000	-8.93916602	-0.24895284	5.98957534	9.59286323	-0.11693972	3.85870836	11.96992753	5.46530536	-2.31525238	10.38120244	0.67037460	1.09246647	9.28728191	-4.91060329	-2.14173085	9.14235161	3.06153120	-2.19678722	7.10389056	0.66938259	9.17965926	6.00243745	3.69930166	11.11048919
6821	68.20000000	-8.81243869	-0.24415159	5.96093068	9.58148685	-0.37080396	3.71364246	11.16807415	6.09356104	-2.27174704	10.50220467	0.77218775	2.05320687	10.35445327	-3.48683635	-2.64066381	9.33604728	5.11413661	-1.76634163	10.25564508	-1.25715902	9.85778407	6.37416286	4.30762017	11.30149444
6822	68.21000000	-8.78091253	-0.20357335	5.94764136	9.48257323	-0.59490062	3.52375120	10.14615433	5.90378146	-1.97701400	10.53644508	1.30289861	1.77771634	10.68644257	-2.49914544	-2.55738007	8.77147836	5.80962311	-1.40710265	12.24581030	-7.13894784	11.39391192	5.87900228	4.19309825	10.75845385
6823	68.22000000	-8.75638283	-0.13580508	5.91252674	9.35026354	-0.69499243	3.34185523	8.94376803	6.49288608	-2.19182737	10.85191270	1.47257537	0.99010497	10.46075373	-1.73192987	-1.85093105	8.61716045	5.46672673	-1.37470498	10.31378735	-3.85098391	10.56086006	4.49018244	3.28587347	10.81289038
6824	68.23000000	-8.76783379	-0.00108845	5.89914761	9.37843072	-0.67826045	3.20171162	8.15309930	6.43160758	-3.03835482	11.62848906	1.13522199	1.22218565	10.16338040	-1.34065263	-1.26425177	8.55067501	4.18379505	-1.61207238	10.89507590	-1.90770370	10.26429485	4.65202119	2.96084182	10.86646268
6825	68.24000000	-8.83538033	0.14643116	5.84242874	9.48055872	-0.68936140	3.02266354	7.66931340	6.28597002	-4.19212536	12.12759066	0.48311396	1.70594456	9.69770075	-0.75784952	-0.69283770	8.95559586	2.75068053	-1.86843840	6.12752751	-1.28569943	8.75785916	4.83002414	2.89620637	10.68997845
6826	68.25000000	-8.92549970	0.26295467	5.86853389	9.49175381	-0.61971735	2.82936047	7.03832803	6.10434213	-4.27619731	12.02978674	-0.45749924	1.62090743	9.58779262	-0.20834576	0.38601878	9.25352024	1.75230741	-2.05494776	2.90976805	-1.62142729	6.89348243	4.51493392	2.77347151	10.71419041
6827	68.26000000	-9.05334309	0.39875308	5.84338887	9.44654089	-0.44545212	2.63336199	5.63568216	6.04496410	-2.94553344	11.68294496	-1.32755798	1.74188416	9.58904857	0.12982812	1.47576924	9.22368812	0.97889104	-2.12602079	0.08098893	-1.77501570	4.99846338	4.32514936	2.40124727	11.10363351
